<?xml version="1.0" standalone="no"?>
<!DOCTYPE svg PUBLIC "-//W3C//DTD SVG 20010904//EN"
 "http://www.w3.org/TR/2001/REC-SVG-20010904/DTD/svg10.dtd">
<svg version="1.0" xmlns="http://www.w3.org/2000/svg"
 width="200.000000pt" height="200.000000pt" viewBox="0 0 200.000000 200.000000"
 preserveAspectRatio="xMidYMid meet">
<metadata>
Created by potrace 1.11, written by Peter Selinger 2001-2013
</metadata>
<g transform="translate(0.000000,200.000000) scale(0.100000,-0.100000)"
fill="#000000" stroke="none">
<path d="M1404 1305 c-175 -211 -321 -384 -324 -385 -3 0 -5 60 -4 132 0 109
-3 140 -17 169 -43 86 -164 148 -344 175 -43 6 -202 6 -255 -1 -120 -15 -245
-64 -301 -118 -57 -54 -59 -65 -59 -427 0 -287 2 -335 16 -363 54 -105 242
-179 459 -179 155 -1 254 18 358 68 54 25 136 100 138 126 1 7 2 36 3 64 2 56
0 53 95 134 36 30 72 62 81 70 43 39 104 92 200 175 58 49 107 92 110 95 3 3
70 61 150 130 80 68 155 133 167 145 37 33 26 82 -18 81 -18 -1 -32 -13 -214
-181 -66 -61 -134 -123 -152 -139 -17 -15 -51 -46 -75 -69 -59 -56 -254 -236
-297 -275 -19 -17 -37 -29 -40 -27 -2 3 -5 30 -6 62 -1 55 12 83 61 128 6 6
60 66 120 135 118 135 158 181 189 216 11 12 47 53 80 90 33 37 80 91 105 119
157 177 162 184 156 210 -5 19 -13 25 -35 25 -24 0 -65 -45 -347 -385z m-590
29 c143 -37 233 -115 218 -191 -6 -33 -59 -85 -114 -111 -237 -115 -666 -70
-758 80 -26 43 -25 66 4 109 47 68 187 124 341 136 44 3 81 6 82 7 7 6 177
-17 227 -30z"/>
<path d="M475 1237 c-93 -37 -125 -80 -99 -134 29 -59 142 -95 264 -82 188 20
243 143 93 206 -57 24 -209 30 -258 10z m195 -38 c0 -11 -2 -11 -123 -13 -101
-2 -109 8 -17 21 62 9 140 5 140 -8z m87 -35 c7 -21 -53 -38 -147 -39 -52 -1
-114 -8 -138 -14 -23 -7 -47 -9 -52 -6 -35 22 27 37 160 39 59 1 94 7 115 19
32 18 56 18 62 1z m-12 -69 c-10 -9 -35 -20 -55 -25 -46 -13 -177 -13 -185 0
-7 11 16 13 120 11 42 0 82 5 100 13 39 19 44 19 20 1z"/>
</g>
</svg>
