<svg height="512pt" viewBox="-91 0 512 512" width="512pt" xmlns="http://www.w3.org/2000/svg"><path d="m307.5 150c-4.144531 0-7.5 3.355469-7.5 7.5 0 15.164062-12.339844 27.5-27.5 27.5h-48.550781c-3.273438-11.527344-13.886719-20-26.449219-20h-80c-12.5625 0-23.179688 8.472656-26.453125 20h-68.546875c-4.136719 0-7.5-3.363281-7.5-7.5s3.363281-7.5 7.5-7.5h15c4.140625 0 7.5-3.359375 7.5-7.5v-22.5h22.5c4.140625 0 7.5-3.359375 7.5-7.5v-95c0-20.679688-16.820312-37.5-37.5-37.5-4.140625 0-7.5 3.355469-7.5 7.5v147.5h-7.5c-12.40625 0-22.5 10.09375-22.5 22.5s10.09375 22.5 22.5 22.5h67.5v92.5c0 4.140625 3.359375 7.5 7.5 7.5h8.042969c1.621093 11.28125 6.839843 21.410156 14.457031 29.191406v159.902344l-24.871094 8.289062c-3.929687 1.308594-6.054687 5.558594-4.746094 9.488282 1.050782 3.140625 3.976563 5.128906 7.113282 5.128906.789062 0 1.585937-.125 2.375-.386719l30-10c3.0625-1.019531 5.128906-3.886719 5.128906-7.113281v-154.578125c6.824219 3.25 14.449219 5.078125 22.5 5.078125 8.046875 0 15.675781-1.828125 22.5-5.078125v154.578125c0 3.226562 2.0625 6.09375 5.125 7.113281l30 10c.789062.261719 1.589844.386719 2.375.386719 3.140625 0 6.066406-1.988281 7.113281-5.128906 1.308594-3.929688-.8125-8.179688-4.742187-9.488282l-24.871094-8.289062v-159.902344c7.613281-7.78125 12.832031-17.910156 14.453125-29.191406h8.046875c4.140625 0 7.5-3.359375 7.5-7.5v-92.5h47.496094c23.4375 0 42.5-19.066406 42.5-42.5.003906-4.144531-3.355469-7.5-7.496094-7.5zm-262.5-133.714844c8.730469 3.097656 15 11.4375 15 21.214844v87.5h-15zm112.5 199.441406-17.867188-35.726562h35.730469zm-52.5-23.226562c0-6.894531 5.605469-12.5 12.5-12.5h5.363281l26.25 52.5-26.25 52.5h-17.863281zm52.5 137.5c-18.109375 0-33.261719-12.90625-36.746094-30h73.492188c-3.484375 17.09375-18.636719 30-36.746094 30zm52.5-45h-70.367188l52.5-105h5.367188c6.890625 0 12.5 5.605469 12.5 12.5zm0 0"/><path d="m157.5 150c19.078125 0 35.804688-10.230469 45-25.492188 9.191406 15.261719 25.921875 25.492188 45 25.492188 4.160156 0 7.519531-3.355469 7.519531-7.5 0-.199219-.007812-.398438-.023437-.59375-.210938-18.828125-10.382813-35.308594-25.476563-44.40625 15.253907-9.195312 25.480469-25.925781 25.480469-45 0-4.140625-3.359375-7.5-7.5-7.5-19.078125 0-35.808594 10.230469-45 25.492188-9.195312-15.261719-25.921875-25.492188-45-25.492188-28.949219 0-52.5 23.550781-52.5 52.5s23.550781 52.5 52.5 52.5zm81.535156-89.035156c-3.214844 13.894531-14.179687 24.855468-28.074218 28.074218 3.21875-13.894531 14.179687-24.859374 28.074218-28.074218zm0 73.074218c-13.894531-3.21875-24.855468-14.179687-28.074218-28.074218 13.894531 3.214844 24.859374 14.175781 28.074218 28.074218zm-81.535156-74.039062c12.242188 0 23.128906 5.898438 29.980469 15h-59.960938c6.847657-9.101562 17.738281-15 29.980469-15zm-36.746094 30h73.492188c.492187 2.421875.753906 4.929688.753906 7.5 0 20.675781-16.820312 37.5-37.5 37.5-20.675781 0-37.5-16.824219-37.5-37.5 0-2.570312.261719-5.078125.753906-7.5zm0 0"/><path d="m307.5 90c-12.40625 0-22.5 10.09375-22.5 22.5s10.09375 22.5 22.5 22.5 22.5-10.09375 22.5-22.5-10.09375-22.5-22.5-22.5zm0 30c-4.136719 0-7.5-3.363281-7.5-7.5s3.363281-7.5 7.5-7.5 7.5 3.363281 7.5 7.5-3.363281 7.5-7.5 7.5zm0 0"/><path d="m307.5 75c12.40625 0 22.5-10.09375 22.5-22.5s-10.09375-22.5-22.5-22.5-22.5 10.09375-22.5 22.5 10.09375 22.5 22.5 22.5zm0-30c4.136719 0 7.5 3.363281 7.5 7.5s-3.363281 7.5-7.5 7.5-7.5-3.363281-7.5-7.5 3.363281-7.5 7.5-7.5zm0 0"/></svg>