<svg id="Capa_1" enable-background="new 0 0 511.975 511.975" height="512" viewBox="0 0 511.975 511.975" width="512" xmlns="http://www.w3.org/2000/svg"><path id="XMLID_1043_" d="m502.618 114.918c-12.477-12.478-32.779-12.478-45.256 0l-236.801 236.801c.324-3.121.499-6.274.499-9.455 0-24.04-9.361-46.641-26.36-63.64-13.666-13.665-30.955-22.382-49.698-25.281l290.971-167.991c7.402-4.274 12.697-11.174 14.909-19.431 2.212-8.256 1.076-16.879-3.197-24.282-8.82-15.28-28.429-20.534-43.712-11.713l-154.973 89.474c-4.783 2.761-6.422 8.877-3.66 13.66s8.879 6.422 13.66 3.66l154.974-89.474c5.728-3.307 13.084-1.339 16.392 4.393 1.603 2.776 2.028 6.01 1.199 9.106-.83 3.096-2.815 5.684-5.591 7.286l-387.979 224c-2.777 1.602-6.012 2.027-9.105 1.199-3.097-.83-5.685-2.815-7.287-5.591s-2.028-6.01-1.198-9.106c.829-3.096 2.814-5.684 5.591-7.287l155.073-89.531c4.783-2.761 6.422-8.877 3.66-13.66s-8.876-6.422-13.66-3.66l-155.075 89.531c-15.281 8.822-20.535 28.432-11.713 43.713 4.273 7.402 11.174 12.697 19.431 14.91 2.757.739 5.555 1.104 8.334 1.104 5.207 0 10.344-1.299 15.034-3.812-3.938 10.209-6.021 21.153-6.021 32.424 0 24.04 9.361 46.641 26.36 63.639 16.998 16.999 39.6 26.361 63.64 26.361 3.182 0 6.336-.175 9.458-.499-12.414 12.482-12.395 32.735.061 45.191 6.044 6.044 14.079 9.373 22.627 9.373s16.583-3.328 22.628-9.373l316.784-316.784c12.476-12.478 12.476-32.778.001-45.255zm-421.056 276.844c-13.222-13.221-20.503-30.799-20.503-49.497s7.281-36.276 20.503-49.498c13.221-13.221 30.799-20.502 49.497-20.502 18.697 0 36.276 7.281 49.497 20.503 13.222 13.221 20.503 30.799 20.503 49.497 0 18.327-7.011 35.568-19.739 48.695l-1.566 1.566c-13.127 12.728-30.368 19.739-48.695 19.739-18.698 0-36.276-7.281-49.497-20.503zm406.913-245.732-316.784 316.784c-2.267 2.267-5.28 3.515-8.485 3.515s-6.218-1.248-8.484-3.514c-4.679-4.679-4.679-12.292 0-16.97l316.783-316.785c2.34-2.34 5.412-3.509 8.485-3.509 3.072 0 6.146 1.17 8.485 3.509 4.679 4.678 4.679 12.292 0 16.97z"/><path id="XMLID_1088_" d="m161.197 312.127c-16.617-16.617-43.657-16.618-60.276 0-16.617 16.618-16.617 43.658.001 60.276 8.309 8.309 19.223 12.463 30.138 12.463 10.914 0 21.829-4.154 30.138-12.463 16.616-16.619 16.616-43.658-.001-60.276zm-14.143 46.133c-8.82 8.82-23.171 8.82-31.991 0s-8.82-23.172 0-31.992c4.41-4.411 10.202-6.615 15.996-6.615 5.792 0 11.586 2.206 15.995 6.615 8.821 8.821 8.821 23.173 0 31.992z"/><path id="XMLID_1090_" d="m215.03 160.552c2.64 0 5.21-1.06 7.08-2.92 1.859-1.87 2.92-4.44 2.92-7.08 0-2.63-1.061-5.2-2.92-7.07-1.87-1.86-4.45-2.93-7.08-2.93s-5.2 1.07-7.07 2.93c-1.86 1.87-2.93 4.44-2.93 7.07 0 2.64 1.069 5.21 2.93 7.08 1.86 1.86 4.44 2.92 7.07 2.92z"/></svg>